<svg xmlns="http://www.w3.org/2000/svg"  viewBox="0 0 96 96" width="96px" height="96px"><path fill="#0fd2ff" d="M56.999,83.827c-0.885,0-1.694-0.592-1.932-1.488c-0.283-1.067,0.353-2.162,1.42-2.445 C70.92,76.062,81,62.947,81,48c0-18.196-14.804-33-33-33S15,29.804,15,48c0,14.063,8.924,26.505,22,31.118v-5.567 c-3.012,0.376-6.001-0.297-8.465-1.92c-1.856-1.227-3.278-2.929-4.006-4.793c-0.084-0.202-0.18-0.455-0.275-0.71 c-0.143-0.38-0.277-0.739-0.422-1.018c-0.533-1.106-1.543-1.962-2.667-2.292c-0.034-0.01-0.067-0.021-0.101-0.032 c-1.344-0.474-2.138-1.803-1.931-3.231c0.207-1.43,1.343-2.479,2.764-2.552c3.775-0.278,7.491,2.055,9.422,5.927 c0.018,0.035,0.034,0.071,0.05,0.107c0.446,1.046,1.533,1.77,2.769,1.844c0.044,0.002,0.089,0.007,0.133,0.012 c0.955,0.126,1.991-0.119,2.886-0.653c0.086-0.483,0.208-0.958,0.362-1.42C29.317,61.615,23,54.531,23,46v-2 c0-4.172,1.268-8.138,3.675-11.529c-0.445-2.235-0.636-5.389,0.402-9.021c0.217-0.762,0.864-1.322,1.648-1.432 c0.201-0.027,4.646-0.595,8.843,2.747C39.354,24.257,41.176,24,43,24c1.104,0,2,0.896,2,2s-0.896,2-2,2 c-1.76,0-3.524,0.303-5.243,0.898c-0.709,0.243-1.493,0.074-2.034-0.44c-1.871-1.78-3.871-2.309-5.144-2.45 c-0.5,2.679-0.197,4.925,0.187,6.422c0.155,0.602,0.021,1.24-0.362,1.729C28.177,37.005,27,40.408,27,44v2c0,7.168,5.832,13,13,13 h0.76c0.77,0,1.47,0.441,1.803,1.135c0.333,0.693,0.238,1.517-0.243,2.117c-0.755,0.94-1.204,2.071-1.299,3.27 c-0.043,0.543-0.305,1.044-0.727,1.39c-1.851,1.515-4.201,2.223-6.462,1.958c-2.031-0.14-3.843-1.064-5.072-2.523 c0.486,0.741,1.162,1.407,1.978,1.947c1.76,1.159,3.942,1.601,6.135,1.234c0.048-0.008,0.096-0.014,0.144-0.018 c0.15-0.015,0.579-0.074,1.308-0.336c0.612-0.217,1.294-0.127,1.826,0.247C40.683,69.796,41,70.406,41,71.057v10.77 c0,0.621-0.289,1.207-0.781,1.585c-0.492,0.379-1.131,0.507-1.732,0.348C22.303,79.464,11,64.759,11,48c0-20.402,16.598-37,37-37 s37,16.598,37,37c0,16.759-11.303,31.464-27.487,35.759C57.341,83.805,57.168,83.827,56.999,83.827z M22.172,60.993 c-0.01,0-0.02,0.001-0.03,0.002C22.152,60.994,22.163,60.994,22.172,60.993z" opacity=".3"/><path fill="#0fd2ff" d="M56.998,84.827c-1.327,0-2.541-0.888-2.897-2.231c-0.425-1.602,0.528-3.244,2.13-3.669 C70.226,75.212,80,62.494,80,48c0-17.645-14.355-32-32-32c-6.313,0-12.206,1.838-17.17,5.007c1.976,0.184,4.541,0.892,6.951,2.664 C39.5,23.226,41.249,23,43,23c1.657,0,3,1.343,3,3s-1.343,3-3,3c-1.648,0-3.302,0.283-4.916,0.843 c-1.061,0.367-2.238,0.113-3.051-0.66c-1.253-1.193-2.571-1.753-3.621-2.011c-0.241,2.068,0.012,3.801,0.322,5.009 c0.231,0.902,0.031,1.861-0.543,2.595C29.104,37.444,28,40.634,28,44v2c0,6.617,5.383,12,12,12h0.76 c1.154,0,2.206,0.662,2.705,1.702c0.5,1.041,0.357,2.275-0.365,3.175c-0.628,0.784-1.002,1.726-1.082,2.724 c-0.064,0.813-0.458,1.566-1.09,2.084c-0.259,0.211-0.526,0.409-0.801,0.592c0.209,0.085,0.41,0.194,0.599,0.327 C41.525,69.165,42,70.08,42,71.057v10.77c0,0.932-0.433,1.81-1.171,2.378c-0.739,0.569-1.699,0.76-2.599,0.521 C21.609,80.314,10,65.212,10,48c0-20.953,17.047-38,38-38s38,17.047,38,38c0,17.212-11.609,32.314-28.23,36.726 C57.512,84.794,57.253,84.827,56.998,84.827z M19.917,63.335C23.412,69.729,29.046,74.862,36,77.671v-3.032 c-2.863,0.117-5.659-0.622-8.015-2.172c-2.029-1.342-3.585-3.21-4.388-5.266c-0.081-0.192-0.18-0.456-0.28-0.722 c-0.132-0.352-0.256-0.683-0.373-0.906c-0.429-0.889-1.202-1.543-2.062-1.796c-0.051-0.015-0.101-0.031-0.151-0.049 C20.44,63.626,20.168,63.493,19.917,63.335z M32.038,62.142c0.061,0.112,0.119,0.227,0.177,0.341 c0.026,0.054,0.051,0.107,0.075,0.162c0.299,0.7,1.048,1.187,1.909,1.238c0.067,0.004,0.133,0.01,0.2,0.019 c0.595,0.077,1.231-0.035,1.825-0.3C34.754,63.286,33.351,62.792,32.038,62.142z M22.263,61.989 c-0.016,0.001-0.033,0.002-0.049,0.003C22.23,61.991,22.247,61.99,22.263,61.989z M25.661,25.108C19.704,30.924,16,39.037,16,48 c0,4.017,0.75,7.896,2.133,11.486c0.003-0.025,0.007-0.05,0.01-0.075c0.276-1.908,1.799-3.31,3.703-3.407 c1.176-0.082,2.352,0.06,3.476,0.404C23.231,53.468,22,49.875,22,46v-2c0-4.237,1.245-8.272,3.615-11.756 C25.203,29.912,25.219,27.493,25.661,25.108z" opacity=".3"/><path fill="#0fd2ff" d="M57,82.826c-0.442,0-0.847-0.296-0.966-0.743c-0.142-0.534,0.176-1.082,0.71-1.224 C71.614,76.913,82,63.4,82,48c0-18.748-15.252-34-34-34S14,29.252,14,48c0,14.962,9.805,28.143,24,32.5v-8.114 c-0.252,0.054-0.49,0.091-0.709,0.111c-2.871,0.479-5.81-0.124-8.206-1.701c-1.685-1.113-2.971-2.647-3.625-4.322 c-0.088-0.212-0.179-0.453-0.271-0.696c-0.154-0.41-0.299-0.798-0.472-1.13c-0.646-1.344-1.864-2.375-3.271-2.789 c-0.938-0.328-1.462-1.211-1.324-2.161c0.137-0.95,0.888-1.647,1.826-1.696c3.394-0.246,6.727,1.868,8.477,5.375 c0.627,1.467,2.018,2.404,3.654,2.503c1.38,0.172,2.832-0.217,4-1.048c0.13-1.003,0.427-1.969,0.878-2.864 C30.619,61.427,24,54.472,24,46v-2c0-4.106,1.293-8.003,3.746-11.302c-0.48-2.131-0.759-5.291,0.293-8.973 c0.109-0.381,0.432-0.662,0.824-0.716c0.187-0.03,4.504-0.576,8.479,2.867C39.198,25.295,41.099,25,43,25c0.552,0,1,0.447,1,1 s-0.448,1-1,1c-1.872,0-3.746,0.321-5.571,0.953c-0.352,0.123-0.746,0.039-1.017-0.22c-2.583-2.457-5.39-2.771-6.631-2.773 c-0.782,3.235-0.435,5.959,0.017,7.718c0.077,0.301,0.01,0.621-0.181,0.865C27.25,36.566,26,40.183,26,44v2c0,7.72,6.28,14,14,14 h0.76c0.385,0,0.735,0.221,0.901,0.567c0.167,0.347,0.119,0.759-0.122,1.059c-0.88,1.098-1.404,2.417-1.515,3.816 c-0.021,0.271-0.153,0.522-0.363,0.694c-1.658,1.357-3.762,1.986-5.769,1.732c-2.331-0.138-4.38-1.54-5.282-3.654 c-1.028-2.057-3.379-4.437-6.539-4.218c1.881,0.514,3.562,1.938,4.435,3.754c0.215,0.412,0.389,0.876,0.558,1.324 c0.083,0.221,0.165,0.439,0.252,0.65c0.513,1.314,1.529,2.515,2.871,3.401c1.973,1.299,4.407,1.792,6.85,1.388 c0.476-0.047,1.028-0.185,1.626-0.399c0.305-0.109,0.646-0.063,0.913,0.124C39.842,70.426,40,70.731,40,71.057v10.77 c0,0.311-0.144,0.604-0.39,0.793s-0.567,0.254-0.866,0.174C22.997,78.613,12,64.307,12,48c0-19.851,16.149-36,36-36 s36,16.149,36,36c0,16.307-10.997,30.613-26.744,34.793C57.17,82.815,57.084,82.826,57,82.826z"/><g><path fill="#0fd2ff" d="M57,83.826c-1.104,0-2-0.896-2-2V66c0-1.376-0.457-2.672-1.32-3.748 c-0.481-0.601-0.576-1.424-0.243-2.117C53.77,59.441,54.47,59,55.24,59H56c7.168,0,13-5.832,13-13v-2 c0-3.463-1.106-6.771-3.198-9.565c-0.372-0.496-0.492-1.137-0.326-1.734c0.432-1.552,0.783-3.89,0.257-6.694 c-1.285,0.144-3.323,0.683-5.217,2.521c-0.549,0.534-1.354,0.708-2.075,0.445C56.664,28.327,54.833,28,53,28h-2.5 c-1.104,0-2-0.896-2-2s0.896-2,2-2H53c1.905,0,3.803,0.279,5.659,0.833c4.22-3.418,8.726-2.839,8.929-2.814 c0.784,0.109,1.431,0.671,1.648,1.432c1.083,3.793,0.837,7.067,0.33,9.375C71.815,36.145,73,39.987,73,44v2 c0,8.533-6.319,15.617-14.523,16.82C58.82,63.84,59,64.915,59,66v15.826C59,82.931,58.104,83.826,57,83.826z" opacity=".3"/><path fill="#0fd2ff" d="M57,84.826c-1.657,0-3-1.343-3-3V66c0-1.146-0.38-2.226-1.1-3.123 c-0.722-0.899-0.864-2.135-0.365-3.175C53.034,58.662,54.086,58,55.24,58H56c6.617,0,12-5.383,12-12v-2 c0-3.245-1.037-6.346-2.999-8.966c-0.558-0.744-0.738-1.705-0.489-2.602c0.351-1.262,0.644-3.081,0.387-5.264 c-1.063,0.263-2.411,0.837-3.687,2.075c-0.825,0.8-2.033,1.06-3.113,0.668C56.432,29.307,54.716,29,53,29h-2.5 c-1.657,0-3-1.343-3-3s1.343-3,3-3H53c1.832,0,3.656,0.246,5.445,0.732c4.436-3.326,9.064-2.732,9.28-2.704 c1.177,0.163,2.146,1.006,2.473,2.147c1.075,3.763,0.903,7.044,0.432,9.444C72.839,36.022,74,39.928,74,44v2 c0,8.646-6.126,15.887-14.265,17.61C59.91,64.392,60,65.193,60,66v15.826C60,83.483,58.657,84.826,57,84.826z" opacity=".3"/><path fill="#0fd2ff" d="M57,82.826c-0.552,0-1-0.447-1-1V66c0-1.605-0.533-3.118-1.54-4.374 c-0.241-0.3-0.288-0.712-0.122-1.059C54.504,60.221,54.855,60,55.24,60H56c7.72,0,14-6.28,14-14v-2 c0-3.681-1.175-7.195-3.397-10.164c-0.186-0.248-0.246-0.568-0.163-0.867c0.505-1.817,0.908-4.638,0.092-8.01 c-1.251,0.003-4.105,0.32-6.711,2.851c-0.275,0.266-0.679,0.353-1.038,0.223C56.895,27.347,54.95,27,53,27h-2.5 c-0.552,0-1-0.447-1-1s0.448-1,1-1H53c1.983,0,3.959,0.319,5.884,0.951c3.998-3.526,8.375-2.97,8.566-2.941 c0.393,0.054,0.715,0.335,0.824,0.716c1.096,3.836,0.758,7.107,0.216,9.305C70.788,36.264,72,40.045,72,44v2 c0,8.473-6.62,15.429-14.959,15.967C57.666,63.213,58,64.598,58,66v15.826C58,82.379,57.552,82.826,57,82.826z"/></g></svg>